<mxfile host="app.diagrams.net" agent="Mozilla/5.0 (Windows NT 10.0; Win64; x64) AppleWebKit/537.36 (KHTML, like Gecko) Chrome/135.0.0.0 Safari/537.36" version="27.1.4">
  <diagram name="Trang-1" id="VraIW6mYe2UBwn9pdnvD">
    <mxGraphModel dx="1157" dy="635" grid="1" gridSize="10" guides="1" tooltips="1" connect="1" arrows="1" fold="1" page="1" pageScale="1" pageWidth="1169" pageHeight="1654" math="0" shadow="0">
      <root>
        <mxCell id="0" />
        <mxCell id="1" parent="0" />
        <mxCell id="tVMcDfQx82HrFF794RLT-3" value="" style="edgeStyle=orthogonalEdgeStyle;rounded=0;orthogonalLoop=1;jettySize=auto;html=1;" edge="1" parent="1" source="tVMcDfQx82HrFF794RLT-1" target="tVMcDfQx82HrFF794RLT-2">
          <mxGeometry relative="1" as="geometry" />
        </mxCell>
        <mxCell id="tVMcDfQx82HrFF794RLT-1" value="Bắt đầu" style="ellipse;whiteSpace=wrap;html=1;" vertex="1" parent="1">
          <mxGeometry x="530" y="290" width="120" height="80" as="geometry" />
        </mxCell>
        <mxCell id="tVMcDfQx82HrFF794RLT-5" value="" style="edgeStyle=orthogonalEdgeStyle;rounded=0;orthogonalLoop=1;jettySize=auto;html=1;" edge="1" parent="1" source="tVMcDfQx82HrFF794RLT-2" target="tVMcDfQx82HrFF794RLT-4">
          <mxGeometry relative="1" as="geometry" />
        </mxCell>
        <mxCell id="tVMcDfQx82HrFF794RLT-2" value="Khởi tạo các biến cần thiết" style="whiteSpace=wrap;html=1;" vertex="1" parent="1">
          <mxGeometry x="530" y="410" width="120" height="60" as="geometry" />
        </mxCell>
        <mxCell id="tVMcDfQx82HrFF794RLT-7" value="" style="edgeStyle=orthogonalEdgeStyle;rounded=0;orthogonalLoop=1;jettySize=auto;html=1;" edge="1" parent="1" source="tVMcDfQx82HrFF794RLT-4" target="tVMcDfQx82HrFF794RLT-6">
          <mxGeometry relative="1" as="geometry" />
        </mxCell>
        <mxCell id="tVMcDfQx82HrFF794RLT-17" value="YES" style="edgeLabel;html=1;align=center;verticalAlign=middle;resizable=0;points=[];" vertex="1" connectable="0" parent="tVMcDfQx82HrFF794RLT-7">
          <mxGeometry x="-0.5494" relative="1" as="geometry">
            <mxPoint as="offset" />
          </mxGeometry>
        </mxCell>
        <mxCell id="tVMcDfQx82HrFF794RLT-4" value="systemenable=1" style="rhombus;whiteSpace=wrap;html=1;" vertex="1" parent="1">
          <mxGeometry x="520" y="510" width="140" height="80" as="geometry" />
        </mxCell>
        <mxCell id="tVMcDfQx82HrFF794RLT-9" value="" style="edgeStyle=orthogonalEdgeStyle;rounded=0;orthogonalLoop=1;jettySize=auto;html=1;" edge="1" parent="1" source="tVMcDfQx82HrFF794RLT-6" target="tVMcDfQx82HrFF794RLT-8">
          <mxGeometry relative="1" as="geometry" />
        </mxCell>
        <mxCell id="tVMcDfQx82HrFF794RLT-6" value="Đọc cảm biến chuyển động" style="whiteSpace=wrap;html=1;" vertex="1" parent="1">
          <mxGeometry x="530" y="630" width="120" height="60" as="geometry" />
        </mxCell>
        <mxCell id="tVMcDfQx82HrFF794RLT-11" value="" style="edgeStyle=orthogonalEdgeStyle;rounded=0;orthogonalLoop=1;jettySize=auto;html=1;" edge="1" parent="1" source="tVMcDfQx82HrFF794RLT-8" target="tVMcDfQx82HrFF794RLT-10">
          <mxGeometry relative="1" as="geometry" />
        </mxCell>
        <mxCell id="tVMcDfQx82HrFF794RLT-50" value="YES" style="edgeLabel;html=1;align=center;verticalAlign=middle;resizable=0;points=[];" vertex="1" connectable="0" parent="tVMcDfQx82HrFF794RLT-11">
          <mxGeometry x="-0.6995" y="-4" relative="1" as="geometry">
            <mxPoint as="offset" />
          </mxGeometry>
        </mxCell>
        <mxCell id="tVMcDfQx82HrFF794RLT-8" value="Có chuyển động hay không?" style="rhombus;whiteSpace=wrap;html=1;" vertex="1" parent="1">
          <mxGeometry x="510" y="720" width="160" height="80" as="geometry" />
        </mxCell>
        <mxCell id="tVMcDfQx82HrFF794RLT-13" value="" style="edgeStyle=orthogonalEdgeStyle;rounded=0;orthogonalLoop=1;jettySize=auto;html=1;" edge="1" parent="1" source="tVMcDfQx82HrFF794RLT-10" target="tVMcDfQx82HrFF794RLT-12">
          <mxGeometry relative="1" as="geometry" />
        </mxCell>
        <mxCell id="tVMcDfQx82HrFF794RLT-10" value="Đọc cảm biến khoảng cách" style="whiteSpace=wrap;html=1;" vertex="1" parent="1">
          <mxGeometry x="530" y="830" width="120" height="60" as="geometry" />
        </mxCell>
        <mxCell id="tVMcDfQx82HrFF794RLT-21" value="" style="edgeStyle=orthogonalEdgeStyle;rounded=0;orthogonalLoop=1;jettySize=auto;html=1;" edge="1" parent="1" source="tVMcDfQx82HrFF794RLT-12" target="tVMcDfQx82HrFF794RLT-16">
          <mxGeometry relative="1" as="geometry" />
        </mxCell>
        <mxCell id="tVMcDfQx82HrFF794RLT-47" value="YES" style="edgeLabel;html=1;align=center;verticalAlign=middle;resizable=0;points=[];" vertex="1" connectable="0" parent="tVMcDfQx82HrFF794RLT-21">
          <mxGeometry x="0.5671" y="-1" relative="1" as="geometry">
            <mxPoint as="offset" />
          </mxGeometry>
        </mxCell>
        <mxCell id="tVMcDfQx82HrFF794RLT-12" value="Khoảng cách&amp;lt;30cm" style="rhombus;whiteSpace=wrap;html=1;" vertex="1" parent="1">
          <mxGeometry x="520" y="910" width="140" height="80" as="geometry" />
        </mxCell>
        <mxCell id="tVMcDfQx82HrFF794RLT-22" value="" style="edgeStyle=orthogonalEdgeStyle;rounded=0;orthogonalLoop=1;jettySize=auto;html=1;" edge="1" parent="1" source="tVMcDfQx82HrFF794RLT-16" target="tVMcDfQx82HrFF794RLT-20">
          <mxGeometry relative="1" as="geometry" />
        </mxCell>
        <mxCell id="tVMcDfQx82HrFF794RLT-46" value="YES" style="edgeLabel;html=1;align=center;verticalAlign=middle;resizable=0;points=[];" vertex="1" connectable="0" parent="tVMcDfQx82HrFF794RLT-22">
          <mxGeometry x="0.2005" y="-3" relative="1" as="geometry">
            <mxPoint as="offset" />
          </mxGeometry>
        </mxCell>
        <mxCell id="tVMcDfQx82HrFF794RLT-35" style="edgeStyle=orthogonalEdgeStyle;rounded=0;orthogonalLoop=1;jettySize=auto;html=1;" edge="1" parent="1" source="tVMcDfQx82HrFF794RLT-16">
          <mxGeometry relative="1" as="geometry">
            <mxPoint x="590" y="1210" as="targetPoint" />
            <Array as="points">
              <mxPoint x="680" y="1060" />
              <mxPoint x="680" y="1210" />
              <mxPoint x="650" y="1210" />
            </Array>
          </mxGeometry>
        </mxCell>
        <mxCell id="tVMcDfQx82HrFF794RLT-45" value="NO" style="edgeLabel;html=1;align=center;verticalAlign=middle;resizable=0;points=[];" vertex="1" connectable="0" parent="tVMcDfQx82HrFF794RLT-35">
          <mxGeometry x="-0.3307" y="1" relative="1" as="geometry">
            <mxPoint as="offset" />
          </mxGeometry>
        </mxCell>
        <mxCell id="tVMcDfQx82HrFF794RLT-16" value="biến đếm cảnh báo=0" style="rhombus;whiteSpace=wrap;html=1;" vertex="1" parent="1">
          <mxGeometry x="520" y="1020" width="140" height="80" as="geometry" />
        </mxCell>
        <mxCell id="tVMcDfQx82HrFF794RLT-34" value="" style="edgeStyle=orthogonalEdgeStyle;rounded=0;orthogonalLoop=1;jettySize=auto;html=1;" edge="1" parent="1" source="tVMcDfQx82HrFF794RLT-20" target="tVMcDfQx82HrFF794RLT-23">
          <mxGeometry relative="1" as="geometry" />
        </mxCell>
        <mxCell id="tVMcDfQx82HrFF794RLT-20" value="Khởi tạo lại thời gian ban đầu=0" style="rounded=0;whiteSpace=wrap;html=1;" vertex="1" parent="1">
          <mxGeometry x="530" y="1130" width="120" height="60" as="geometry" />
        </mxCell>
        <mxCell id="tVMcDfQx82HrFF794RLT-36" value="" style="edgeStyle=orthogonalEdgeStyle;rounded=0;orthogonalLoop=1;jettySize=auto;html=1;" edge="1" parent="1" source="tVMcDfQx82HrFF794RLT-23" target="tVMcDfQx82HrFF794RLT-27">
          <mxGeometry relative="1" as="geometry" />
        </mxCell>
        <mxCell id="tVMcDfQx82HrFF794RLT-23" value="count++" style="whiteSpace=wrap;html=1;" vertex="1" parent="1">
          <mxGeometry x="530" y="1230" width="120" height="60" as="geometry" />
        </mxCell>
        <mxCell id="tVMcDfQx82HrFF794RLT-42" value="" style="edgeStyle=orthogonalEdgeStyle;rounded=0;orthogonalLoop=1;jettySize=auto;html=1;" edge="1" parent="1" source="tVMcDfQx82HrFF794RLT-27" target="tVMcDfQx82HrFF794RLT-41">
          <mxGeometry relative="1" as="geometry" />
        </mxCell>
        <mxCell id="tVMcDfQx82HrFF794RLT-57" value="YES" style="edgeLabel;html=1;align=center;verticalAlign=middle;resizable=0;points=[];" vertex="1" connectable="0" parent="tVMcDfQx82HrFF794RLT-42">
          <mxGeometry x="-0.6995" y="1" relative="1" as="geometry">
            <mxPoint as="offset" />
          </mxGeometry>
        </mxCell>
        <mxCell id="tVMcDfQx82HrFF794RLT-27" value="timer&amp;lt;5s &amp;amp;&amp;amp; countt&amp;lt;6" style="rhombus;whiteSpace=wrap;html=1;rounded=0;" vertex="1" parent="1">
          <mxGeometry x="520" y="1320" width="140" height="80" as="geometry" />
        </mxCell>
        <mxCell id="tVMcDfQx82HrFF794RLT-39" value="Kết thúc" style="ellipse;whiteSpace=wrap;html=1;" vertex="1" parent="1">
          <mxGeometry x="530" y="1520" width="120" height="80" as="geometry" />
        </mxCell>
        <mxCell id="tVMcDfQx82HrFF794RLT-43" value="" style="edgeStyle=orthogonalEdgeStyle;rounded=0;orthogonalLoop=1;jettySize=auto;html=1;" edge="1" parent="1" source="tVMcDfQx82HrFF794RLT-41" target="tVMcDfQx82HrFF794RLT-39">
          <mxGeometry relative="1" as="geometry" />
        </mxCell>
        <mxCell id="tVMcDfQx82HrFF794RLT-41" value="tạo biến cảnh báo" style="rounded=0;whiteSpace=wrap;html=1;" vertex="1" parent="1">
          <mxGeometry x="530" y="1430" width="120" height="60" as="geometry" />
        </mxCell>
        <mxCell id="tVMcDfQx82HrFF794RLT-44" value="" style="endArrow=classic;html=1;rounded=0;exitX=1;exitY=0.5;exitDx=0;exitDy=0;" edge="1" parent="1" source="tVMcDfQx82HrFF794RLT-27">
          <mxGeometry width="50" height="50" relative="1" as="geometry">
            <mxPoint x="690" y="1360" as="sourcePoint" />
            <mxPoint x="590" y="1500" as="targetPoint" />
            <Array as="points">
              <mxPoint x="720" y="1360" />
              <mxPoint x="720" y="1440" />
              <mxPoint x="720" y="1500" />
            </Array>
          </mxGeometry>
        </mxCell>
        <mxCell id="tVMcDfQx82HrFF794RLT-56" value="NO" style="edgeLabel;html=1;align=center;verticalAlign=middle;resizable=0;points=[];" vertex="1" connectable="0" parent="tVMcDfQx82HrFF794RLT-44">
          <mxGeometry x="-0.853" y="2" relative="1" as="geometry">
            <mxPoint as="offset" />
          </mxGeometry>
        </mxCell>
        <mxCell id="tVMcDfQx82HrFF794RLT-48" value="" style="endArrow=classic;html=1;rounded=0;exitX=1;exitY=0.5;exitDx=0;exitDy=0;" edge="1" parent="1" source="tVMcDfQx82HrFF794RLT-12">
          <mxGeometry width="50" height="50" relative="1" as="geometry">
            <mxPoint x="560" y="1230" as="sourcePoint" />
            <mxPoint x="720" y="1360" as="targetPoint" />
            <Array as="points">
              <mxPoint x="720" y="950" />
            </Array>
          </mxGeometry>
        </mxCell>
        <mxCell id="tVMcDfQx82HrFF794RLT-49" value="NO" style="edgeLabel;html=1;align=center;verticalAlign=middle;resizable=0;points=[];" vertex="1" connectable="0" parent="tVMcDfQx82HrFF794RLT-48">
          <mxGeometry x="0.0958" y="2" relative="1" as="geometry">
            <mxPoint as="offset" />
          </mxGeometry>
        </mxCell>
        <mxCell id="tVMcDfQx82HrFF794RLT-55" value="NO" style="edgeLabel;html=1;align=center;verticalAlign=middle;resizable=0;points=[];" vertex="1" connectable="0" parent="tVMcDfQx82HrFF794RLT-48">
          <mxGeometry x="-0.9053" relative="1" as="geometry">
            <mxPoint as="offset" />
          </mxGeometry>
        </mxCell>
        <mxCell id="tVMcDfQx82HrFF794RLT-51" value="" style="endArrow=classic;html=1;rounded=0;exitX=1;exitY=0.5;exitDx=0;exitDy=0;" edge="1" parent="1" source="tVMcDfQx82HrFF794RLT-8">
          <mxGeometry width="50" height="50" relative="1" as="geometry">
            <mxPoint x="560" y="820" as="sourcePoint" />
            <mxPoint x="720" y="950" as="targetPoint" />
            <Array as="points">
              <mxPoint x="720" y="760" />
            </Array>
          </mxGeometry>
        </mxCell>
        <mxCell id="tVMcDfQx82HrFF794RLT-54" value="NO" style="edgeLabel;html=1;align=center;verticalAlign=middle;resizable=0;points=[];" vertex="1" connectable="0" parent="tVMcDfQx82HrFF794RLT-51">
          <mxGeometry x="-0.8229" relative="1" as="geometry">
            <mxPoint as="offset" />
          </mxGeometry>
        </mxCell>
        <mxCell id="tVMcDfQx82HrFF794RLT-52" value="" style="endArrow=classic;html=1;rounded=0;exitX=1;exitY=0.5;exitDx=0;exitDy=0;" edge="1" parent="1" source="tVMcDfQx82HrFF794RLT-4">
          <mxGeometry width="50" height="50" relative="1" as="geometry">
            <mxPoint x="560" y="690" as="sourcePoint" />
            <mxPoint x="720" y="760" as="targetPoint" />
            <Array as="points">
              <mxPoint x="720" y="550" />
            </Array>
          </mxGeometry>
        </mxCell>
        <mxCell id="tVMcDfQx82HrFF794RLT-53" value="NO" style="edgeLabel;html=1;align=center;verticalAlign=middle;resizable=0;points=[];" vertex="1" connectable="0" parent="tVMcDfQx82HrFF794RLT-52">
          <mxGeometry x="-0.7981" y="-1" relative="1" as="geometry">
            <mxPoint as="offset" />
          </mxGeometry>
        </mxCell>
      </root>
    </mxGraphModel>
  </diagram>
</mxfile>
